<?xml version="1.0" standalone="no"?>
<!DOCTYPE svg PUBLIC "-//W3C//DTD SVG 20010904//EN"
 "http://www.w3.org/TR/2001/REC-SVG-20010904/DTD/svg10.dtd">
<svg version="1.0" xmlns="http://www.w3.org/2000/svg"
 width="280.000000pt" height="280.000000pt" viewBox="0 0 280.000000 280.000000"
 preserveAspectRatio="xMidYMid meet">

<g transform="translate(0.000000,280.000000) scale(0.100000,-0.100000)"
fill="#4f0699" stroke="none">
<path d="M653 2744 c-74 -20 -169 -79 -229 -141 -62 -64 -119 -176 -134 -264
-8 -44 -10 -279 -8 -764 l4 -700 27 -99 c28 -98 90 -236 140 -309 67 -99 190
-215 292 -277 102 -63 252 -115 375 -130 111 -13 970 -13 1041 0 177 34 345
194 389 372 7 29 10 287 8 793 l-3 750 -28 88 c-111 356 -393 616 -741 682
-111 21 -1055 20 -1133 -1z m1005 -294 c108 -14 193 -41 270 -87 183 -109 299
-291 322 -506 14 -130 13 -1301 -1 -1352 -13 -47 -70 -111 -116 -131 -41 -18
-884 -20 -994 -3 -132 20 -255 83 -349 178 -73 74 -125 154 -163 254 l-32 82
0 717 0 716 30 43 c32 46 77 77 128 89 49 12 812 11 905 0z"/>
<path d="M1013 2119 c-23 -12 -54 -38 -70 -61 l-28 -41 -3 -382 -3 -381 24
-35 c25 -38 77 -68 119 -69 44 0 103 28 129 63 23 31 24 37 29 282 4 177 9
257 18 276 25 47 47 54 203 59 140 5 147 6 187 34 67 46 82 146 32 215 -40 57
-65 61 -344 61 -231 -1 -254 -3 -293 -21z"/>
<path d="M1716 1636 c-71 -43 -75 -60 -76 -324 0 -331 -1 -332 -215 -332 -140
0 -172 -9 -220 -59 -27 -29 -30 -39 -30 -94 0 -51 5 -68 25 -95 43 -58 65 -62
342 -62 271 0 292 4 342 56 63 66 61 54 61 461 0 361 -1 372 -21 400 -55 74
-136 93 -208 49z"/>
</g>
</svg>
